<svg xmlns="http://www.w3.org/2000/svg" viewBox="0 0 220 180" fill="none">
  <ellipse cx="110" cy="158" rx="78" ry="14" fill="#1a2433" opacity="0.12"/>
  <ellipse cx="118" cy="152" rx="52" ry="10" fill="#1a2433" opacity="0.18"/>
  <path d="M62 118c0-6 42-10 48-10s48 4 48 10v22c0 6-42 10-48 10s-48-4-48-10v-22z" fill="#E86A2E"/>
  <path d="M62 118c0-6 42-10 48-10s48 4 48 10v8c0 6-42 10-48 10s-48-4-48-10v-8z" fill="#FF9F5A"/>
  <ellipse cx="110" cy="118" rx="48" ry="8" fill="#FFBC7A"/>
  <path d="M58 72c0-32 24-52 52-52s52 20 52 52c0 28-24 48-52 48s-52-20-52-48z" fill="url(#glass)" fill-opacity="0.35" stroke="#B8E4FF" stroke-width="2"/>
  <path d="M58 72c0-32 24-52 52-52s52 20 52 52v0" fill="url(#glassShine)"/>
  <ellipse cx="88" cy="58" rx="18" ry="10" fill="white" opacity="0.45"/>
  <path d="M78 78h44l-8 14H70l8-14z" fill="#4A90D9"/>
  <path d="M86 70l22 10-4 8-22-10 4-8z" fill="#2E6BB5"/>
  <rect x="68" y="98" width="20" height="14" rx="3" fill="#3D9A6B"/>
  <rect x="64" y="94" width="28" height="6" rx="2" fill="#5CB88A"/>
  <rect x="118" y="52" width="32" height="24" rx="12" fill="white" stroke="#E8DFD0" stroke-width="1.2"/>
  <circle cx="128" cy="62" r="2.5" fill="#3D9A6B"/>
  <circle cx="136" cy="62" r="2.5" fill="#3D9A6B"/>
  <circle cx="144" cy="62" r="2.5" fill="#3D9A6B"/>
  <defs>
    <linearGradient id="glass" x1="58" y1="20" x2="162" y2="120">
      <stop stop-color="#E8F7FF"/>
      <stop offset="1" stop-color="#9ED4F5" stop-opacity="0.6"/>
    </linearGradient>
    <linearGradient id="glassShine" x1="70" y1="25" x2="130" y2="90">
      <stop stop-color="white" stop-opacity="0.5"/>
      <stop offset="1" stop-color="white" stop-opacity="0"/>
    </linearGradient>
  </defs>
</svg>
