<svg xmlns="http://www.w3.org/2000/svg" viewBox="0 0 220 180" fill="none">
  <ellipse cx="110" cy="158" rx="70" ry="12" fill="#1a2433" opacity="0.1"/>
  <path d="M78 118c0-5 32-9 36-9s36 4 36 9v20c0 5-32 9-36 9s-36-4-36-9v-20z" fill="#E86A2E"/>
  <ellipse cx="114" cy="118" rx="36" ry="6" fill="#FFBC7A"/>
  <rect x="88" y="36" width="52" height="96" rx="10" fill="#2A3544"/>
  <rect x="92" y="40" width="44" height="86" rx="8" fill="white"/>
  <rect x="98" y="52" width="32" height="40" rx="4" fill="#F3EDE4"/>
  <rect x="102" y="58" width="24" height="4" rx="2" fill="#E0D5C8"/>
  <rect x="102" y="66" width="18" height="3" rx="1.5" fill="#E0D5C8"/>
  <rect x="102" y="74" width="22" height="3" rx="1.5" fill="#E0D5C8"/>
  <rect x="106" y="84" width="20" height="6" rx="2" fill="#4A90D9"/>
  <rect x="78" y="28" width="28" height="28" rx="10" fill="#FF7A45"/>
  <path d="M86 38h12v4h-12z" fill="white"/>
  <path d="M92 44c0 2 1.5 4 4 4s4-2 4-4" stroke="white" stroke-width="2" stroke-linecap="round"/>
  <rect x="62" y="100" width="10" height="10" rx="2" fill="#FF7A45" transform="rotate(12 67 105)"/>
  <rect x="148" y="88" width="8" height="8" rx="1" fill="#4A90D9" transform="rotate(-18 152 92)"/>
  <circle cx="54" cy="72" r="6" fill="#3D9A6B"/>
  <circle cx="162" cy="64" r="5" fill="#FFBC7A"/>
  <circle cx="168" cy="108" r="4" fill="#FF7A45"/>
  <rect x="58" y="48" width="7" height="7" rx="1.5" fill="#2E6BB5" transform="rotate(25 61.5 51.5)"/>
</svg>
