<svg xmlns="http://www.w3.org/2000/svg" viewBox="0 0 160 200" fill="none">
  <path d="M80 168V108" stroke="#A7833F" stroke-width="1.5" stroke-linecap="round"/>
  <path d="M62 168H98" stroke="#A7833F" stroke-width="1.5" stroke-linecap="round"/>
  <path d="M80 108C66 108 56 98 56 86C56 72 66 62 80 62C94 62 104 72 104 86C104 98 94 108 80 108Z" stroke="#A7833F" stroke-width="1.5" stroke-linejoin="round"/>
  <path d="M80 48V62M76 54H84" stroke="#A7833F" stroke-width="1.5" stroke-linecap="round"/>
  <path d="M68 92L72 100M92 92L88 100" stroke="#A7833F" stroke-width="1.5" stroke-linecap="round"/>
  <path d="M74 78C76 74 78 72 80 72C82 72 84 74 86 78" stroke="#A7833F" stroke-width="1.5" stroke-linecap="round"/>
  <path d="M24 168H136" stroke="#A7833F" stroke-width="1.5" stroke-linecap="round"/>
</svg>
